<svg width="1060" height="790" viewBox="0 0 1060 790" xmlns="http://www.w3.org/2000/svg"
     font-family="Calibri, Carlito, 'Segoe UI', sans-serif">
  <defs>
    <marker id="ae" markerWidth="10" markerHeight="8" refX="9" refY="3"
            orient="auto" markerUnits="userSpaceOnUse">
      <path d="M0,0 L10,3 L0,6 z" fill="#5A5A5A"/>
    </marker>
    <marker id="as" markerWidth="10" markerHeight="8" refX="1" refY="3"
            orient="auto" markerUnits="userSpaceOnUse">
      <path d="M10,0 L0,3 L10,6 z" fill="#5A5A5A"/>
    </marker>
  </defs>

  <text x="25" y="42" font-size="15" font-weight="700" fill="#1F3864">Figure 1.</text>
  <text x="25" y="62" font-size="12.5" fill="#333">Context diagram —</text>
  <text x="25" y="79" font-size="12.5" fill="#333">HF-RPM System</text>

  <line x1="219" y1="213" x2="370" y2="350" stroke="#5A5A5A"
        stroke-width="1.6" marker-end="url(#ae)"/>
    <rect x="238" y="265.5" width="113" height="32" rx="3"
          fill="#FFFFFF" fill-opacity="0.93"/>
    <text x="294.5" y="277.5" text-anchor="middle"
             font-size="11" fill="#333333">vital signs, weight,</text><text x="294.5" y="290.5" text-anchor="middle"
             font-size="11" fill="#333333">symptom responses</text><line x1="219" y1="388" x2="370" y2="390" stroke="#5A5A5A"
        stroke-width="1.6" marker-start="url(#as)" marker-end="url(#ae)"/>
    <rect x="230.275" y="373" width="128.45" height="32" rx="3"
          fill="#FFFFFF" fill-opacity="0.93"/>
    <text x="294.5" y="385" text-anchor="middle"
             font-size="11" fill="#333333">measurement assistance;</text><text x="294.5" y="398" text-anchor="middle"
             font-size="11" fill="#333333">prompts, escalation</text><line x1="219" y1="563" x2="370" y2="430" stroke="#5A5A5A"
        stroke-width="1.6" marker-end="url(#ae)"/>
    <rect x="245.725" y="480.5" width="97.55000000000001" height="32" rx="3"
          fill="#FFFFFF" fill-opacity="0.93"/>
    <text x="294.5" y="492.5" text-anchor="middle"
             font-size="11" fill="#333333">activity context,</text><text x="294.5" y="505.5" text-anchor="middle"
             font-size="11" fill="#333333">usage conditions</text><line x1="690" y1="350" x2="841" y2="184" stroke="#5A5A5A"
        stroke-width="1.6" marker-start="url(#as)" marker-end="url(#ae)"/>
    <rect x="685.825" y="251" width="159.35000000000002" height="32" rx="3"
          fill="#FFFFFF" fill-opacity="0.93"/>
    <text x="765.5" y="263" text-anchor="middle"
             font-size="11" fill="#333333">trends, alerts, triage queue;</text><text x="765.5" y="276" text-anchor="middle"
             font-size="11" fill="#333333">thresholds, dispositions</text><line x1="690" y1="375" x2="841" y2="309" stroke="#5A5A5A"
        stroke-width="1.6" marker-start="url(#as)" marker-end="url(#ae)"/>
    <rect x="706.425" y="326" width="118.15" height="32" rx="3"
          fill="#FFFFFF" fill-opacity="0.93"/>
    <text x="765.5" y="338" text-anchor="middle"
             font-size="11" fill="#333333">escalation summaries;</text><text x="765.5" y="351" text-anchor="middle"
             font-size="11" fill="#333333">medication titration</text><line x1="690" y1="405" x2="841" y2="434" stroke="#5A5A5A"
        stroke-width="1.6" marker-end="url(#ae)"/>
    <rect x="714.15" y="403.5" width="102.7" height="32" rx="3"
          fill="#FFFFFF" fill-opacity="0.93"/>
    <text x="765.5" y="415.5" text-anchor="middle"
             font-size="11" fill="#333333">critical-threshold</text><text x="765.5" y="428.5" text-anchor="middle"
             font-size="11" fill="#333333">escalation notice</text><line x1="690" y1="430" x2="841" y2="559" stroke="#5A5A5A"
        stroke-width="1.6" marker-end="url(#ae)"/>
    <rect x="727.025" y="478.5" width="76.95" height="32" rx="3"
          fill="#FFFFFF" fill-opacity="0.93"/>
    <text x="765.5" y="490.5" text-anchor="middle"
             font-size="11" fill="#333333">de-identified</text><text x="765.5" y="503.5" text-anchor="middle"
             font-size="11" fill="#333333">trend data</text><line x1="345" y1="98" x2="450" y2="320" stroke="#5A5A5A"
        stroke-width="1.6" marker-end="url(#ae)"/>
    <rect x="351.3" y="193" width="92.4" height="32" rx="3"
          fill="#FFFFFF" fill-opacity="0.93"/>
    <text x="397.5" y="205" text-anchor="middle"
             font-size="11" fill="#333333">classification &amp;</text><text x="397.5" y="218" text-anchor="middle"
             font-size="11" fill="#333333">SaMD constraints</text><line x1="555" y1="98" x2="530" y2="320" stroke="#5A5A5A"
        stroke-width="1.6" marker-end="url(#ae)"/>
    <rect x="486" y="193" width="113" height="32" rx="3"
          fill="#FFFFFF" fill-opacity="0.93"/>
    <text x="542.5" y="205" text-anchor="middle"
             font-size="11" fill="#333333">privacy, security,</text><text x="542.5" y="218" text-anchor="middle"
             font-size="11" fill="#333333">practice constraints</text><line x1="765" y1="98" x2="610" y2="320" stroke="#5A5A5A"
        stroke-width="1.6" marker-start="url(#as)" marker-end="url(#ae)"/>
    <rect x="641.3" y="193" width="92.4" height="32" rx="3"
          fill="#FFFFFF" fill-opacity="0.93"/>
    <text x="687.5" y="205" text-anchor="middle"
             font-size="11" fill="#333333">coverage rules;</text><text x="687.5" y="218" text-anchor="middle"
             font-size="11" fill="#333333">RPM billing data</text><line x1="345" y1="686" x2="450" y2="460" stroke="#5A5A5A"
        stroke-width="1.6" marker-end="url(#ae)"/>
    <rect x="338.425" y="557" width="118.15" height="32" rx="3"
          fill="#FFFFFF" fill-opacity="0.93"/>
    <text x="397.5" y="569" text-anchor="middle"
             font-size="11" fill="#333333">broadband / cellular,</text><text x="397.5" y="582" text-anchor="middle"
             font-size="11" fill="#333333">mains power</text><line x1="555" y1="686" x2="530" y2="460" stroke="#5A5A5A"
        stroke-width="1.6" marker-start="url(#as)" marker-end="url(#ae)"/>
    <rect x="467.975" y="557" width="149.05" height="32" rx="3"
          fill="#FFFFFF" fill-opacity="0.93"/>
    <text x="542.5" y="569" text-anchor="middle"
             font-size="11" fill="#333333">demographics, meds, orders;</text><text x="542.5" y="582" text-anchor="middle"
             font-size="11" fill="#333333">observations, flowsheets</text><line x1="765" y1="686" x2="610" y2="460" stroke="#5A5A5A"
        stroke-width="1.6" marker-start="url(#as)" marker-end="url(#ae)"/>
    <rect x="615.55" y="557" width="143.9" height="32" rx="3"
          fill="#FFFFFF" fill-opacity="0.93"/>
    <text x="687.5" y="569" text-anchor="middle"
             font-size="11" fill="#333333">devices, consumables;</text><text x="687.5" y="582" text-anchor="middle"
             font-size="11" fill="#333333">fault &amp; calibration status</text>

  <rect x="354" y="304" width="352" height="172" rx="16"
        fill="none" stroke="#1F3864" stroke-width="1.6"
        stroke-dasharray="7 5" stroke-opacity="0.8"/>
  <rect x="352" y="482" width="104" height="15" rx="2" fill="#FFFFFF" fill-opacity="0.95"/>
  <text x="354" y="494" font-size="11" font-style="italic" fill="#1F3864">system boundary</text>

  <rect x="370" y="320" width="320" height="140" rx="10"
        fill="#1F3864" stroke="#0F1F3D" stroke-width="2"/>
  <text x="530" y="362" text-anchor="middle" font-size="16"
        font-weight="700" fill="#FFFFFF">Heart Failure Remote</text>
  <text x="530" y="383" text-anchor="middle" font-size="16"
        font-weight="700" fill="#FFFFFF">Patient Monitoring System</text>
  <text x="530" y="403" text-anchor="middle" font-size="14"
        font-weight="700" fill="#AFC6E9">(HF-RPM)</text>
  <text x="530" y="428" text-anchor="middle" font-size="11"
        font-style="italic" fill="#C9D8F0">system of interest — black box;</text>
  <text x="530" y="442" text-anchor="middle" font-size="11"
        font-style="italic" fill="#C9D8F0">internals defined in later modules</text>

  
  <g>
    <rect x="25" y="175" width="190" height="76" rx="7"
          fill="#E8F0FA" stroke="#2E5C8A" stroke-width="1.8"/>
    <text x="120" y="206" text-anchor="middle" font-size="13.5"
             font-weight="600" fill="#173A5E">Patient</text><text x="120" y="223" text-anchor="middle" font-size="13.5"
             font-weight="600" fill="#173A5E">(HF, post-discharge)</text>
  </g>
  <g>
    <rect x="25" y="350" width="190" height="76" rx="7"
          fill="#E8F0FA" stroke="#2E5C8A" stroke-width="1.8"/>
    <text x="120" y="381" text-anchor="middle" font-size="13.5"
             font-weight="600" fill="#173A5E">Home Caregiver /</text><text x="120" y="398" text-anchor="middle" font-size="13.5"
             font-weight="600" fill="#173A5E">Family Member</text>
  </g>
  <g>
    <rect x="25" y="525" width="190" height="76" rx="7"
          fill="#E8F0FA" stroke="#2E5C8A" stroke-width="1.8"/>
    <text x="120" y="556" text-anchor="middle" font-size="13.5"
             font-weight="600" fill="#173A5E">Home Environment &amp;</text><text x="120" y="573" text-anchor="middle" font-size="13.5"
             font-weight="600" fill="#173A5E">Daily Activities</text>
  </g>
  <g>
    <rect x="845" y="150" width="190" height="68" rx="7"
          fill="#E7F4EB" stroke="#2E7D4F" stroke-width="1.8"/>
    <text x="940" y="177" text-anchor="middle" font-size="13.5"
             font-weight="600" fill="#1B4D31">HF Nurse Navigator /</text><text x="940" y="194" text-anchor="middle" font-size="13.5"
             font-weight="600" fill="#1B4D31">Monitoring Clinician</text>
  </g>
  <g>
    <rect x="845" y="275" width="190" height="68" rx="7"
          fill="#E7F4EB" stroke="#2E7D4F" stroke-width="1.8"/>
    <text x="940" y="302" text-anchor="middle" font-size="13.5"
             font-weight="600" fill="#1B4D31">Cardiologist /</text><text x="940" y="319" text-anchor="middle" font-size="13.5"
             font-weight="600" fill="#1B4D31">Prescribing Clinician</text>
  </g>
  <g>
    <rect x="845" y="400" width="190" height="68" rx="7"
          fill="#E7F4EB" stroke="#2E7D4F" stroke-width="1.8"/>
    <text x="940" y="427" text-anchor="middle" font-size="13.5"
             font-weight="600" fill="#1B4D31">EMS / Emergency</text><text x="940" y="444" text-anchor="middle" font-size="13.5"
             font-weight="600" fill="#1B4D31">Department</text>
  </g>
  <g>
    <rect x="845" y="525" width="190" height="68" rx="7"
          fill="#E7F4EB" stroke="#2E7D4F" stroke-width="1.8"/>
    <text x="940" y="552" text-anchor="middle" font-size="13.5"
             font-weight="600" fill="#1B4D31">Population Health</text><text x="940" y="569" text-anchor="middle" font-size="13.5"
             font-weight="600" fill="#1B4D31">&amp; Analytics</text>
  </g>
  <g>
    <rect x="250" y="30" width="190" height="64" rx="7"
          fill="#FBEFE3" stroke="#B06A2C" stroke-width="1.8"/>
    <text x="345" y="57" text-anchor="middle" font-size="13.5"
             font-weight="600" fill="#6E3F14">FDA</text><text x="345" y="74" text-anchor="middle" font-size="13.5"
             font-weight="600" fill="#6E3F14">(SaMD / device reg.)</text>
  </g>
  <g>
    <rect x="460" y="30" width="190" height="64" rx="7"
          fill="#FBEFE3" stroke="#B06A2C" stroke-width="1.8"/>
    <text x="555" y="57" text-anchor="middle" font-size="13.5"
             font-weight="600" fill="#6E3F14">HIPAA / HITECH,</text><text x="555" y="74" text-anchor="middle" font-size="13.5"
             font-weight="600" fill="#6E3F14">State Licensure</text>
  </g>
  <g>
    <rect x="670" y="30" width="190" height="64" rx="7"
          fill="#FBEFE3" stroke="#B06A2C" stroke-width="1.8"/>
    <text x="765" y="57" text-anchor="middle" font-size="13.5"
             font-weight="600" fill="#6E3F14">Payer</text><text x="765" y="74" text-anchor="middle" font-size="13.5"
             font-weight="600" fill="#6E3F14">(CMS / commercial)</text>
  </g>
  <g>
    <rect x="250" y="690" width="190" height="64" rx="7"
          fill="#EFEAF6" stroke="#5B4A8A" stroke-width="1.8"/>
    <text x="345" y="717" text-anchor="middle" font-size="13.5"
             font-weight="600" fill="#38295C">Home Connectivity</text><text x="345" y="734" text-anchor="middle" font-size="13.5"
             font-weight="600" fill="#38295C">&amp; Electrical Power</text>
  </g>
  <g>
    <rect x="460" y="690" width="190" height="64" rx="7"
          fill="#EFEAF6" stroke="#5B4A8A" stroke-width="1.8"/>
    <text x="555" y="717" text-anchor="middle" font-size="13.5"
             font-weight="600" fill="#38295C">EHR / Health</text><text x="555" y="734" text-anchor="middle" font-size="13.5"
             font-weight="600" fill="#38295C">System IT</text>
  </g>
  <g>
    <rect x="670" y="690" width="190" height="64" rx="7"
          fill="#EFEAF6" stroke="#5B4A8A" stroke-width="1.8"/>
    <text x="765" y="717" text-anchor="middle" font-size="13.5"
             font-weight="600" fill="#38295C">Device Logistics</text><text x="765" y="734" text-anchor="middle" font-size="13.5"
             font-weight="600" fill="#38295C">&amp; Field Support</text>
  </g>
  
  <g>
    <text x="25" y="634" font-size="12" font-weight="700" fill="#222">LEGEND</text>
    <rect x="25" y="644" width="15" height="13" rx="2.5"
                    fill="#E8F0FA" stroke="#2E5C8A" stroke-width="1.5"/>
              <text x="47" y="654" font-size="11.5" fill="#333">Patient domain</text><rect x="25" y="664" width="15" height="13" rx="2.5"
                    fill="#E7F4EB" stroke="#2E7D4F" stroke-width="1.5"/>
              <text x="47" y="674" font-size="11.5" fill="#333">Clinical / care-delivery domain</text><rect x="25" y="684" width="15" height="13" rx="2.5"
                    fill="#FBEFE3" stroke="#B06A2C" stroke-width="1.5"/>
              <text x="47" y="694" font-size="11.5" fill="#333">Regulatory, legal &amp; payer domain</text><rect x="25" y="704" width="15" height="13" rx="2.5"
                    fill="#EFEAF6" stroke="#5B4A8A" stroke-width="1.5"/>
              <text x="47" y="714" font-size="11.5" fill="#333">Enabling infrastructure domain</text>
    <line x1="25" y1="730" x2="51" y2="730" stroke="#5A5A5A"
          stroke-width="1.6" marker-end="url(#ae)"/>
    <text x="58" y="734" font-size="11.5" fill="#333">one-way flow</text>
    <line x1="25" y1="752" x2="51" y2="752" stroke="#5A5A5A"
          stroke-width="1.6" marker-start="url(#as)" marker-end="url(#ae)"/>
    <text x="58" y="756" font-size="11.5" fill="#333">bidirectional flow</text>
  </g>

  <text x="1035" y="775" text-anchor="end" font-size="10.5" font-style="italic" fill="#666">
    Every arrow crossing the boundary is a candidate interface requirement.
  </text>
</svg>